<?xml version="1.0" standalone="no"?><!-- Generator: Gravit.io --><svg xmlns="http://www.w3.org/2000/svg" xmlns:xlink="http://www.w3.org/1999/xlink" style="isolation:isolate" viewBox="310 80 34.199 40.366" width="34.199" height="40.366"><linearGradient id="_lgradient_0" x1="48.554205562214634%" y1="120.4836615716244%" x2="48.191609256635935%" y2="-51.175472761120865%"><stop offset="1.7391304347826086%" stop-opacity="1" style="stop-color:rgb(133,170,78)"/><stop offset="100%" stop-opacity="1" style="stop-color:rgb(141,204,15)"/></linearGradient><path d=" M 336.995 114.255 L 335.958 114.648 L 336.995 114.255 Z  M 327.1 120.366 L 327.1 120.366 Q 321.661 120.366 317.849 118.796 L 317.849 118.796 L 317.849 118.796 Q 314.037 117.227 312.074 114.648 L 312.074 114.648 L 312.074 114.648 Q 310.112 112.069 310 109.041 L 310 109.041 L 310 109.041 Q 310 108.537 310.364 108.2 L 310.364 108.2 L 310.364 108.2 Q 310.729 107.864 311.233 107.864 L 311.233 107.864 L 318.69 107.864 L 318.69 107.864 Q 319.363 107.864 319.783 108.088 L 319.783 108.088 L 319.783 108.088 Q 320.204 108.312 320.708 108.873 L 320.708 108.873 L 320.708 108.873 Q 321.437 110.219 322.979 111.088 L 322.979 111.088 L 322.979 111.088 Q 324.521 111.957 327.1 111.957 L 327.1 111.957 L 327.1 111.957 Q 330.127 111.957 331.753 111.031 L 331.753 111.031 L 331.753 111.031 Q 333.379 110.106 333.379 108.481 L 333.379 108.481 L 333.379 108.481 Q 333.379 107.303 332.538 106.546 L 332.538 106.546 L 332.538 106.546 Q 331.697 105.789 329.847 105.201 L 329.847 105.201 L 329.847 105.201 Q 327.997 104.612 324.521 103.883 L 324.521 103.883 L 324.521 103.883 Q 317.737 102.538 314.373 99.791 L 314.373 99.791 L 314.373 99.791 Q 311.009 97.043 311.009 91.942 L 311.009 91.942 L 311.009 91.942 Q 311.009 88.466 312.943 85.747 L 312.943 85.747 L 312.943 85.747 Q 314.878 83.027 318.438 81.514 L 318.438 81.514 L 318.438 81.514 Q 321.998 80 326.707 80 L 326.707 80 L 326.707 80 Q 331.641 80 335.257 81.71 L 335.257 81.71 L 335.257 81.71 Q 338.873 83.42 340.807 85.971 L 340.807 85.971 L 340.807 85.971 Q 342.741 88.522 342.854 90.989 L 342.854 90.989 L 342.854 90.989 Q 342.854 91.493 342.517 91.858 L 342.517 91.858 L 342.517 91.858 Q 342.181 92.222 341.676 92.222 L 341.676 92.222 L 333.827 92.222 L 333.827 92.222 Q 332.594 92.222 331.921 91.213 L 331.921 91.213 L 331.921 91.213 Q 331.585 90.035 330.183 89.223 L 330.183 89.223 L 330.183 89.223 Q 328.781 88.41 326.707 88.41 L 326.707 88.41 L 326.707 88.41 Q 324.352 88.41 323.063 89.251 L 323.063 89.251 L 323.063 89.251 Q 321.773 90.092 321.773 91.717 L 321.773 91.717 L 321.773 91.717 Q 321.773 93.343 323.455 94.268 L 323.455 94.268 L 323.455 94.268 Q 325.137 95.193 329.735 96.146 L 329.735 96.146 L 329.735 96.146 Q 335.005 97.1 338.116 98.529 L 338.116 98.529 L 338.116 98.529 Q 341.228 99.959 342.713 102.229 L 342.713 102.229 L 342.713 102.229 Q 344.199 104.5 344.199 107.976 L 344.199 107.976 L 344.199 107.976 Q 344.199 111.788 342.013 114.592 L 342.013 114.592 L 342.013 114.592 Q 339.826 117.395 335.958 118.88 L 335.958 118.88 L 335.958 118.88 Q 332.089 120.366 327.1 120.366 L 327.1 120.366 Z " fill-rule="evenodd" fill="url(#_lgradient_0)"/></svg>